<?xml version="1.0" encoding="utf-8"?>
<!-- Generator: Adobe Illustrator 14.0.0, SVG Export Plug-In . SVG Version: 6.00 Build 43363)  -->
<!DOCTYPE svg PUBLIC "-//W3C//DTD SVG 1.1//EN" "http://www.w3.org/Graphics/SVG/1.1/DTD/svg11.dtd">
<svg version="1.1" id="Capa_1" xmlns="http://www.w3.org/2000/svg" xmlns:xlink="http://www.w3.org/1999/xlink" x="0px" y="0px"
	 width="153px" height="57px" viewBox="220.14 395.445 153 57" enable-background="new 220.14 395.445 153 57" xml:space="preserve"
	>
<g>
	<path fill="#005291" d="M249.188,422.23c-2.08-0.432-3.121,0.926-3.121,4.047v4.592h-2.894v-11.24h2.736
		c0,0.565-0.068,1.47-0.204,2.261h0.045c0.542-1.424,1.628-2.667,3.573-2.509L249.188,422.23z"/>
	<path fill="#005291" d="M259.475,425.71h-6.965c-0.022,2.104,1.018,3.121,3.098,3.121c1.108,0,2.307-0.248,3.279-0.701l0.271,2.238
		c-1.199,0.475-2.624,0.725-4.025,0.725c-3.573,0-5.563-1.787-5.563-5.744c0-3.438,1.899-5.969,5.269-5.969
		c3.279,0,4.726,2.239,4.726,5.02C259.565,424.783,259.542,425.236,259.475,425.71z M254.749,421.505
		c-1.199,0-2.035,0.881-2.193,2.238h4.138C256.738,422.341,255.97,421.505,254.749,421.505z"/>
	<path fill="#005291" d="M265.647,431.025c-0.543,0-0.972-0.023-1.447-0.092v5.383h-2.894v-16.688h2.69
		c0,0.543-0.022,1.289-0.113,1.877h0.045c0.633-1.312,1.832-2.103,3.527-2.103c2.668,0,4.116,1.922,4.116,5.246
		C271.572,428.56,269.537,431.025,265.647,431.025z M266.62,421.777c-1.515,0-2.419,1.764-2.419,3.686v3.121
		c0.452,0.135,0.927,0.203,1.515,0.203c1.628,0,2.827-1.041,2.827-3.822C268.542,422.863,267.932,421.777,266.62,421.777z"/>
	<path fill="#005291" d="M279.283,422.23c-2.08-0.432-3.12,0.926-3.12,4.047v4.592h-2.895v-11.24h2.736
		c0,0.565-0.068,1.47-0.204,2.261h0.045c0.543-1.424,1.628-2.667,3.573-2.509L279.283,422.23z"/>
	<path fill="#005291" d="M282.064,418.181c-0.995,0-1.786-0.792-1.786-1.764c0-0.95,0.791-1.742,1.786-1.742s1.809,0.77,1.809,1.742
		S283.059,418.181,282.064,418.181z M280.617,430.867v-11.239h2.895v11.239H280.617z"/>
	<path fill="#005291" d="M287.898,431.093c-0.814,0-1.628-0.092-2.352-0.205l0.068-2.373c0.701,0.182,1.56,0.34,2.419,0.34
		c1.108,0,1.832-0.451,1.832-1.197c0-1.99-4.544-0.859-4.544-4.682c0-1.968,1.605-3.596,4.771-3.596c0.656,0,1.379,0.09,2.058,0.203
		l-0.09,2.284c-0.633-0.182-1.379-0.293-2.081-0.293c-1.13,0-1.673,0.453-1.673,1.152c0,1.832,4.613,1.018,4.613,4.658
		C292.918,429.601,290.973,431.093,287.898,431.093z"/>
	<path fill="#005291" d="M303.817,425.71h-6.965c-0.022,2.104,1.018,3.121,3.098,3.121c1.107,0,2.307-0.248,3.279-0.701l0.271,2.238
		c-1.199,0.475-2.624,0.725-4.026,0.725c-3.572,0-5.562-1.787-5.562-5.744c0-3.438,1.899-5.969,5.269-5.969
		c3.278,0,4.727,2.239,4.727,5.02C303.907,424.783,303.886,425.236,303.817,425.71z M299.091,421.505
		c-1.199,0-2.035,0.881-2.193,2.238h4.139C301.081,422.341,300.312,421.505,299.091,421.505z"/>
	<path fill="#005291" d="M319.668,430.867v-7.168c0-1.402-0.339-2.285-1.628-2.285c-1.447,0-2.895,1.605-2.895,4.07v5.383h-2.375
		v-7.191c0-1.266-0.271-2.26-1.627-2.26c-1.539,0-2.873,1.717-2.873,4.071v5.383h-2.42v-11.24h2.308
		c0,0.588-0.046,1.538-0.158,2.195l0.045,0.021c0.656-1.494,2.058-2.442,3.8-2.442c2.217,0,2.939,1.425,3.12,2.42
		c0.476-1.086,1.72-2.42,3.755-2.42c2.147,0,3.346,1.152,3.346,3.708v7.758h-2.397V430.867z"/>
	<path fill="#005291" d="M333.665,425.394h-7.168c-0.068,2.602,1.085,3.775,3.324,3.775c1.152,0,2.352-0.27,3.277-0.723l0.228,1.922
		c-1.132,0.475-2.511,0.725-3.89,0.725c-3.506,0-5.428-1.811-5.428-5.768c0-3.393,1.854-5.923,5.133-5.923
		c3.211,0,4.59,2.193,4.59,4.861C333.731,424.58,333.71,424.964,333.665,425.394z M329.052,421.188c-1.355,0-2.307,0.995-2.51,2.51
		h4.771C331.358,422.162,330.478,421.188,329.052,421.188z"/>
	<path fill="#005291" d="M342.574,430.867c0-0.588,0.045-1.471,0.157-2.104h-0.045c-0.61,1.379-1.922,2.328-3.664,2.328
		c-2.758,0-4.138-2.035-4.138-5.291c0-3.867,2.238-6.354,5.88-6.354c0.543,0,1.086,0.045,1.695,0.09v-5.178h2.396v16.508H342.574
		L342.574,430.867z M342.461,421.574c-0.61-0.137-1.198-0.205-1.786-0.205c-1.922,0-3.232,1.175-3.232,4.207
		c0,2.262,0.701,3.525,2.238,3.525c1.785,0,2.78-2.125,2.78-4.047V421.574z"/>
	<path fill="#005291" d="M348.929,417.955c-0.859,0-1.562-0.678-1.562-1.515c0-0.838,0.7-1.517,1.562-1.517
		c0.836,0,1.537,0.656,1.537,1.517C350.466,417.276,349.765,417.955,348.929,417.955z M347.707,430.867v-11.239h2.42v11.239H347.707
		z"/>
	<path fill="#005291" d="M358.968,430.867c0-0.725,0.021-1.471,0.113-2.08l-0.021-0.023c-0.543,1.334-1.945,2.33-3.731,2.33
		c-1.923,0-3.144-1.086-3.144-2.871c0-2.578,2.578-4.07,6.625-4.07v-0.725c0-1.4-0.588-2.125-2.352-2.125
		c-1.04,0-2.396,0.317-3.348,0.905l-0.227-2.057c1.108-0.43,2.51-0.746,3.959-0.746c3.436,0,4.387,1.492,4.387,3.799v4.59
		c0,0.973,0.021,2.125,0.066,3.076h-2.328V430.867z M358.81,425.779c-3.527,0-4.295,1.063-4.295,2.035
		c0,0.836,0.588,1.379,1.536,1.379c1.65,0,2.759-1.582,2.759-3.188V425.779z"/>
</g>
<g>
	<path fill="#8AC2E6" d="M240.369,414.131l-0.049-0.524c-0.109-2.165,3.669-1.792,3.669-1.792l-0.008-0.007
		c1.648-0.002,2.984-0.873,2.984-1.946c0-1.076-1.328-1.891-2.976-1.891c-1.648,0-2.992,0.814-2.992,1.891l0.05,0.525
		c0.109,2.163-3.67,1.791-3.67,1.791c-1.647,0-2.983,0.872-2.983,1.947c0,1.076,1.31,1.889,2.957,1.889
		c1.648,0,3.011-0.813,3.011-1.889L240.369,414.131z"/>
	<path fill="#0092D0" d="M240.369,418.296l-0.049-0.525c-0.109-2.164,3.669-1.791,3.669-1.791l-0.008-0.007
		c1.648-0.002,2.984-0.872,2.984-1.946c0-1.075-1.328-1.891-2.976-1.891c-1.648,0-2.992,0.815-2.992,1.891l0.05,0.525
		c0.109,2.165-3.67,1.792-3.67,1.792c-1.647,0-2.983,0.872-2.983,1.948s1.31,1.888,2.957,1.888c1.648,0,3.011-0.813,3.011-1.888
		L240.369,418.296z"/>
</g>
</svg>
